<svg width="1400" height="560" viewBox="0 0 1400 560" fill="none" xmlns="http://www.w3.org/2000/svg">
  <defs>
    <linearGradient id="g1" x1="0" y1="0" x2="1" y2="1">
      <stop offset="0%" stop-color="#0f74ff" stop-opacity="0.9"/>
      <stop offset="100%" stop-color="#7c3aed" stop-opacity="0.9"/>
    </linearGradient>
    <radialGradient id="g2" cx="50%" cy="50%" r="70%">
      <stop offset="0%" stop-color="#0f74ff" stop-opacity="0.25"/>
      <stop offset="100%" stop-color="#0f172a" stop-opacity="0.05"/>
    </radialGradient>
  </defs>
  <rect width="1400" height="560" fill="#ffffff"/>
  <circle cx="700" cy="280" r="260" fill="url(#g2)"/>
  <g stroke="url(#g1)" stroke-width="3" stroke-linecap="round" stroke-linejoin="round" fill="none">
    <path d="M480 310 C520 220 600 190 680 220 C760 250 840 230 920 170" opacity="0.7"/>
    <path d="M500 360 C560 320 640 330 700 290 C760 250 820 250 900 280" opacity="0.65"/>
    <path d="M520 200 C600 160 660 210 720 180 C780 150 860 170 920 220" opacity="0.55"/>
    <path d="M560 420 C620 380 700 380 760 360 C820 340 900 350 940 330" opacity="0.6"/>
    <path d="M600 260 C650 230 720 240 780 220 C840 200 900 210 950 240" opacity="0.6"/>
  </g>
  <g fill="#0f74ff" opacity="0.9">
    <circle cx="480" cy="310" r="8"/><circle cx="520" cy="220" r="8"/><circle cx="600" cy="190" r="8"/><circle cx="680" cy="220" r="8"/><circle cx="760" cy="250" r="8"/><circle cx="840" cy="230" r="8"/><circle cx="920" cy="170" r="8"/>
    <circle cx="500" cy="360" r="8"/><circle cx="560" cy="320" r="8"/><circle cx="640" cy="330" r="8"/><circle cx="700" cy="290" r="8"/><circle cx="760" cy="250" r="8"/><circle cx="820" cy="250" r="8"/><circle cx="900" cy="280" r="8"/>
    <circle cx="520" cy="200" r="8"/><circle cx="600" cy="160" r="8"/><circle cx="660" cy="210" r="8"/><circle cx="720" cy="180" r="8"/><circle cx="780" cy="150" r="8"/><circle cx="860" cy="170" r="8"/><circle cx="920" cy="220" r="8"/>
    <circle cx="560" cy="420" r="8"/><circle cx="620" cy="380" r="8"/><circle cx="700" cy="380" r="8"/><circle cx="760" cy="360" r="8"/><circle cx="820" cy="340" r="8"/><circle cx="900" cy="350" r="8"/><circle cx="940" cy="330" r="8"/>
    <circle cx="600" cy="260" r="8"/><circle cx="650" cy="230" r="8"/><circle cx="720" cy="240" r="8"/><circle cx="780" cy="220" r="8"/><circle cx="840" cy="200" r="8"/><circle cx="900" cy="210" r="8"/><circle cx="950" cy="240" r="8"/>
  </g>
</svg>
